<svg xmlns="http://www.w3.org/2000/svg" viewBox="0 0 200 200">
  <!-- Background circle with gradient -->
  <defs>
    <linearGradient id="bgGradient" x1="0%" y1="0%" x2="100%" y2="100%">
      <stop offset="0%" stop-color="#a8e6cf" />
      <stop offset="100%" stop-color="#55b3d9" />
    </linearGradient>
    <linearGradient id="waveGradient" x1="0%" y1="0%" x2="100%" y2="0%">
      <stop offset="0%" stop-color="#7760BF" />
      <stop offset="100%" stop-color="#5D43A8" />
    </linearGradient>
  </defs>
  
  <!-- App background -->
  <circle cx="100" cy="100" r="95" fill="url(#bgGradient)" />
  
  <!-- Face outline -->
  <circle cx="100" cy="100" r="60" fill="white" opacity="0.9" />
  
  <!-- Simplified face -->
  <circle cx="75" cy="85" r="5" fill="#333" /> <!-- Left eye -->
  <circle cx="125" cy="85" r="5" fill="#333" /> <!-- Right eye -->
  <path d="M80 120 Q100 130 120 120" stroke="#333" stroke-width="3" fill="none" /> <!-- Smile -->
  
  <!-- Sound waves emanating from face -->
  <path d="M40 100 Q20 100 20 100" stroke="url(#waveGradient)" stroke-width="3" stroke-linecap="round" fill="none" />
  <path d="M40 100 Q10 100 10 100" stroke="url(#waveGradient)" stroke-width="3" stroke-linecap="round" fill="none" />
  
  <path d="M160 100 Q180 100 180 100" stroke="url(#waveGradient)" stroke-width="3" stroke-linecap="round" fill="none" />
  <path d="M160 100 Q190 100 190 100" stroke="url(#waveGradient)" stroke-width="3" stroke-linecap="round" fill="none" />
  
  <path d="M100 40 Q100 20 100 20" stroke="url(#waveGradient)" stroke-width="3" stroke-linecap="round" fill="none" />
  <path d="M100 40 Q100 10 100 10" stroke="url(#waveGradient)" stroke-width="3" stroke-linecap="round" fill="none" />
  
  <path d="M100 160 Q100 180 100 180" stroke="url(#waveGradient)" stroke-width="3" stroke-linecap="round" fill="none" />
  <path d="M100 160 Q100 190 100 190" stroke="url(#waveGradient)" stroke-width="3" stroke-linecap="round" fill="none" />
  
  <!-- Camera lens element -->
  <circle cx="100" cy="45" r="12" fill="#333" opacity="0.8" />
  <circle cx="100" cy="45" r="8" fill="#555" />
  <circle cx="100" cy="45" r="4" fill="#777" />
  <circle cx="103" cy="42" r="1.5" fill="white" opacity="0.8" />
  
  <!-- Musical note to represent audio -->
  <path d="M145 140 L145 120 Q155 122 155 115 T145 110" fill="#7760BF" />
  <line x1="145" y1="140" x2="138" y2="140" stroke="#7760BF" stroke-width="3" />
  
  <!-- Pulse/heartbeat line representing calm -->
  <path d="M50 140 L60 140 L65 130 L75 150 L80 140 L90 140" fill="none" stroke="#7760BF" stroke-width="3" stroke-linecap="round" />
</svg>